<?xml version="1.0" encoding="utf-8"?>
<!-- Generator: Adobe Illustrator 23.0.2, SVG Export Plug-In . SVG Version: 6.00 Build 0)  -->
<svg version="1.1" id="Capa_1" xmlns="http://www.w3.org/2000/svg" xmlns:xlink="http://www.w3.org/1999/xlink" x="0px" y="0px"
	 viewBox="0 0 180 180" style="enable-background:new 0 0 180 180;" xml:space="preserve">
<style type="text/css">
	.st0{fill:#232323;}
</style>
<g>
	<path class="st0" d="M117.03,89.59c-15.75,0-30.43-7.8-39.26-20.87l6.96-4.7c7.27,10.75,19.34,17.17,32.3,17.17
		c13.86,0,26.79-7.46,33.74-19.47l7.27,4.21c-4.09,7.06-9.97,12.99-17,17.13C133.79,87.33,125.49,89.59,117.03,89.59z"/>
</g>
<path class="st0" d="M84.87,71.02c-6.39,0-12.59-1.25-18.43-3.72c-5.64-2.38-10.7-5.8-15.05-10.14c-4.35-4.35-7.76-9.41-10.14-15.05
	c-2.47-5.84-3.72-12.04-3.72-18.43c0-8.32,2.19-16.51,6.34-23.68l7.27,4.21c-3.41,5.89-5.21,12.62-5.21,19.47
	c0,21.47,17.47,38.95,38.95,38.95c13.86,0,26.79-7.46,33.74-19.47l7.27,4.21c-4.09,7.06-9.97,12.99-17,17.13
	C101.63,68.77,93.33,71.02,84.87,71.02z"/>
<path class="st0" d="M78.09,42.25c0-6.85,1.8-13.58,5.21-19.47l-7.27-4.21c-4.15,7.17-6.34,15.35-6.34,23.68
	c0,3.73,0.43,7.4,1.28,10.97c2.99,1.41,6.23,2.39,9.64,2.83C78.95,51.67,78.09,47.01,78.09,42.25z"/>
<path class="st0" d="M52.3,71.94l-2.11,1.82c-3.85,3.31-7.04,7.55-9.22,12.25c-2.3,4.95-3.46,10.23-3.46,15.69
	c0,7.77,2.28,15.16,6.6,21.38c2.08,2.99,4.56,5.61,7.39,7.78c2.87,2.2,6.02,3.89,9.36,5.03l2.39-8.09
	c-10.66-3.62-17.83-14.11-17.83-26.1c0-7.31,2.79-14.25,7.73-19.44l84.17,52.05l-12.23,13.1H102.5c-5.58,0-10.82,2.32-14.77,6.55
	s-6.11,9.84-6.11,15.81V180h7.92v-10.22c0-7.65,5.81-13.88,12.96-13.88h25.87l21.85-23.4L52.3,71.94z"/>
</svg>
